<svg width="92" height="19" viewBox="0 0 92 19" fill="none" xmlns="http://www.w3.org/2000/svg">
<path d="M47.7963 9.24247C47.0438 9.24247 46.5019 9.4888 45.9555 9.73961V15.4142C46.4795 15.4634 46.7841 15.4634 47.2812 15.4634C49.0816 15.4634 49.3325 14.6393 49.3325 13.4838V10.7742C49.328 9.92772 49.0458 9.24247 47.7963 9.24247ZM35.8246 8.93344C34.575 8.93344 34.2884 9.61869 34.2884 10.4696V10.9489H37.3608V10.4696C37.3608 9.61869 37.0742 8.93344 35.8246 8.93344ZM12.6337 14.8409C12.6337 15.5127 12.9517 15.862 13.6504 15.862C14.4028 15.862 14.8462 15.6157 15.3971 15.3649V14.0168H13.7534C12.9786 14.0213 12.6337 14.1646 12.6337 14.8409ZM59.441 9.24247C58.1869 9.24247 57.7525 9.92772 57.7525 10.7787V13.8869C57.7525 14.7423 58.1869 15.4276 59.441 15.4276C60.6905 15.4276 61.1294 14.7423 61.1294 13.8869V10.7787C61.125 9.92772 60.6905 9.24247 59.441 9.24247ZM6.49786 18.3253H2.81635V9.41266H0.975586V6.34026H2.81635V4.49502C2.81635 1.99142 3.85541 0.5 6.80689 0.5H9.26572V3.57241H7.72951C6.57848 3.57241 6.50682 4.00236 6.50682 4.80406L6.50234 6.34026H9.27915L8.95221 9.41266H6.49338L6.49786 18.3253ZM19.0831 18.3477H16.0152L15.8808 17.5729C14.479 18.3477 13.2294 18.4731 12.4053 18.4731C10.1525 18.4731 8.95669 16.9683 8.95669 14.8901C8.95669 12.4358 10.3541 11.5625 12.8532 11.5625H15.3971V11.034C15.3971 9.77992 15.2538 9.41266 13.3279 9.41266H10.1794L10.4884 6.34026H13.9281C18.1515 6.34026 19.0786 7.67492 19.0786 11.0564L19.0831 18.3477ZM29.5185 9.6366C27.6106 9.30965 27.0597 9.23799 26.1416 9.23799C24.4889 9.23799 23.9918 9.60077 23.9918 11.0026V13.654C23.9918 15.0559 24.4889 15.4231 26.1416 15.4231C27.0597 15.4231 27.6106 15.3515 29.5185 15.02V18.0163C27.848 18.3925 26.7552 18.491 25.837 18.491C21.8823 18.491 20.3103 16.4129 20.3103 13.4077V11.2579C20.3103 8.25268 21.8823 6.17007 25.837 6.17007C26.7596 6.17007 27.848 6.2686 29.5185 6.64481V9.6366ZM41.0423 13.4077H34.2884V13.654C34.2884 15.0559 34.7855 15.4231 36.4382 15.4231C37.9207 15.4231 38.8254 15.3515 40.7333 15.02V18.0163C38.8925 18.3925 37.9386 18.491 36.1336 18.491C32.1789 18.491 30.6069 16.4129 30.6069 13.4077V10.9489C30.6069 8.31985 31.7713 6.17007 35.8246 6.17007C39.8779 6.17007 41.0423 8.29746 41.0423 10.9489V13.4077ZM53.0095 13.4659C53.0095 16.3681 52.1809 18.4866 47.1558 18.4866C45.3419 18.4866 44.276 18.3253 42.274 18.0208V1.42262L45.9555 0.809032V6.61346C46.7527 6.31786 47.7828 6.16559 48.7189 6.16559C52.4004 6.16559 53.014 7.81824 53.014 10.4696L53.0095 13.4659ZM64.811 13.5286C64.811 16.0322 63.7764 18.4597 59.4499 18.4597C55.1235 18.4597 54.071 16.0322 54.071 13.5286V11.1101C54.071 8.60649 55.1235 6.17455 59.4499 6.17455C63.7764 6.17455 64.811 8.60201 64.811 11.1101V13.5286ZM76.6035 13.5286C76.6035 16.0322 75.5689 18.4597 71.2424 18.4597C66.916 18.4597 65.8635 16.0322 65.8635 13.5286V11.1101C65.8635 8.60649 66.916 6.17455 71.2424 6.17455C75.5689 6.17455 76.6035 8.60201 76.6035 11.1101V13.5286ZM88.705 18.3253H84.7144L81.342 12.6911V18.3253H77.6604V1.42262L81.342 0.809032V11.6879L84.7144 6.34026H88.705L85.019 12.176L88.705 18.3253ZM71.229 9.24247C69.9794 9.24247 69.545 9.92772 69.545 10.7787V13.8869C69.545 14.7423 69.9794 15.4276 71.229 15.4276C72.4785 15.4276 72.9219 14.7423 72.9219 13.8869V10.7787C72.9219 9.92772 72.4785 9.24247 71.229 9.24247ZM90.8055 16.2203C91.4236 16.2203 91.9207 16.7264 91.9207 17.3579C91.9207 17.9984 91.4281 18.5 90.801 18.5C90.1785 18.5 89.6769 17.9984 89.6769 17.3579C89.6769 16.7264 90.183 16.2203 90.801 16.2203H90.8055ZM90.801 16.3995C90.2994 16.3995 89.8919 16.8294 89.8919 17.3579C89.8919 17.8999 90.2994 18.3209 90.8055 18.3209C91.3116 18.3253 91.7147 17.8954 91.7147 17.3624C91.7147 16.8294 91.3116 16.395 90.8055 16.395H90.801V16.3995ZM90.5905 18.0208H90.389V16.7533C90.4965 16.7399 90.595 16.7219 90.7473 16.7219C90.9399 16.7219 91.0653 16.7623 91.1414 16.816C91.2176 16.8742 91.2579 16.9593 91.2579 17.0802C91.2579 17.246 91.1459 17.349 91.0115 17.3893V17.3982C91.1235 17.4206 91.1997 17.5192 91.222 17.7073C91.2534 17.9043 91.2803 17.9805 91.3027 18.0208H91.0922C91.0608 17.9805 91.0295 17.864 91.0071 17.6983C90.9757 17.5371 90.8951 17.4744 90.7339 17.4744H90.595L90.5905 18.0208ZM90.5905 17.3176H90.7383C90.9041 17.3176 91.0474 17.2549 91.0474 17.0982C91.0474 16.9862 90.9668 16.8742 90.7383 16.8742C90.6712 16.8742 90.6264 16.8787 90.5905 16.8832V17.3176Z" fill="#F6F8F9"/>
</svg>
