<svg width="129" height="80" viewBox="0 0 129 80" fill="none" xmlns="http://www.w3.org/2000/svg">
<path d="M48.5 9.42856C54.539 9.42856 59.4927 5.27959 59.9806 8.56931e-08L50.1 0C49.2163 6.89746e-08 48.5 0.639593 48.5 1.42857L48.5 9.42856Z" fill="#EEF0F2"/>
<path d="M64.5 7.26133V16.4341C60.1547 19.6431 54.5796 21.5714 48.5 21.5714L48.5 15.5714C55.3548 15.5714 61.3341 12.2246 64.5 7.26133Z" fill="#EEF0F2"/>
<path d="M64.5 23.8919C59.7932 26.3229 54.3286 27.7143 48.5 27.7143L64.5 27.7143V23.8919Z" fill="#EEF0F2"/>
<path d="M80.5 9.42856C74.461 9.42856 69.5073 5.27959 69.0194 8.56931e-08L78.9 0C79.7837 6.89747e-08 80.5 0.639593 80.5 1.42857V9.42856Z" fill="#EEF0F2"/>
<path d="M64.5 7.26133V16.4341C68.8453 19.6431 74.4204 21.5714 80.5 21.5714V15.5714C73.6452 15.5714 67.6659 12.2246 64.5 7.26133Z" fill="#EEF0F2"/>
<path d="M64.5 23.8919C69.2068 26.3229 74.6714 27.7143 80.5 27.7143L64.5 27.7143V23.8919Z" fill="#EEF0F2"/>
<path d="M64.5 42L64.5 27.7143L48.5008 27.7143C48.5866 35.6173 55.7168 42 64.5 42Z" fill="#EEF0F2"/>
<path d="M64.4968 42V27.7143H80.4968C80.3246 35.6308 73.2271 42 64.4968 42Z" fill="#EEF0F2"/>
<path d="M7.54297 76.24C5.74297 76.24 4.35631 75.8067 3.38297 74.94C2.40964 74.0733 1.92297 72.74 1.92297 70.94V62.28H3.82297V71.04C3.82297 72.2133 4.14297 73.1067 4.78297 73.72C5.43631 74.32 6.35631 74.62 7.54297 74.62C8.74297 74.62 9.66964 74.3133 10.323 73.7C10.9763 73.0867 11.303 72.2 11.303 71.04V62.28H13.203V70.94C13.203 72.74 12.7163 74.0733 11.743 74.94C10.7696 75.8067 9.36964 76.24 7.54297 76.24ZM16.4166 61.54H18.1766V76H16.4166V61.54ZM23.5302 76.22C22.8102 76.22 22.2835 76.0067 21.9502 75.58C21.6168 75.1533 21.4502 74.6267 21.4502 74V66.94H20.1702V65.48H21.4702L21.8502 62.56H23.2102V65.48H24.9902V66.94H23.2102V73.84C23.2102 74.4667 23.5035 74.78 24.0902 74.78H24.9902V75.94C24.8168 76.02 24.5902 76.0867 24.3102 76.14C24.0302 76.1933 23.7702 76.22 23.5302 76.22ZM27.0166 65.48H28.3566L28.5566 67.06H28.6766C28.8766 66.54 29.1766 66.1067 29.5766 65.76C29.9766 65.4133 30.5032 65.24 31.1566 65.24C31.3832 65.24 31.5832 65.2667 31.7566 65.32C31.9432 65.36 32.0566 65.3867 32.0966 65.4V67.1H31.3566C30.6099 67.1 29.9899 67.32 29.4966 67.76C29.0166 68.1867 28.7766 68.86 28.7766 69.78V76H27.0166V65.48ZM36.8367 76.24C35.9301 76.24 35.1234 76.0267 34.4167 75.6C33.7101 75.1733 33.3567 74.4 33.3567 73.28C33.3567 71.9333 33.9567 71.0133 35.1567 70.52C36.3567 70.0133 38.0901 69.76 40.3567 69.76V68.6C40.3567 67.9867 40.1834 67.52 39.8367 67.2C39.4901 66.8667 38.8634 66.7 37.9567 66.7C37.1034 66.7 36.4901 66.86 36.1167 67.18C35.7567 67.5 35.5767 67.8933 35.5767 68.36V68.6H33.8767C33.8634 68.52 33.8567 68.3733 33.8567 68.16C33.8567 67.2267 34.2434 66.5067 35.0167 66C35.7901 65.4933 36.8234 65.24 38.1167 65.24C39.4234 65.24 40.4167 65.5133 41.0967 66.06C41.7767 66.6067 42.1167 67.38 42.1167 68.38V74.08C42.1167 74.32 42.1834 74.5 42.3167 74.62C42.4501 74.7267 42.6167 74.78 42.8167 74.78H43.6167V75.92C43.2701 76.08 42.8167 76.16 42.2567 76.16C41.8034 76.16 41.4234 76.0267 41.1167 75.76C40.8101 75.48 40.6034 75.1133 40.4967 74.66H40.3567C39.9967 75.1533 39.5034 75.54 38.8767 75.82C38.2634 76.1 37.5834 76.24 36.8367 76.24ZM37.2967 74.78C37.8167 74.78 38.3101 74.6733 38.7767 74.46C39.2434 74.2467 39.6234 73.9333 39.9167 73.52C40.2101 73.0933 40.3567 72.58 40.3567 71.98V71.22C38.6367 71.22 37.3434 71.36 36.4767 71.64C35.6234 71.9067 35.1967 72.42 35.1967 73.18C35.1967 73.7533 35.3701 74.1667 35.7167 74.42C36.0767 74.66 36.6034 74.78 37.2967 74.78ZM51.4964 62.28H54.3164L57.5964 71.64C57.7164 71.9867 57.8364 72.3867 57.9564 72.84C58.0897 73.28 58.1764 73.5667 58.2164 73.7H58.2964C58.3364 73.5533 58.4164 73.2467 58.5364 72.78C58.6697 72.3133 58.7897 71.9333 58.8964 71.64L62.1964 62.28H64.9964V76H63.0964V66.94L63.1364 64.38H62.9964C62.9831 64.4733 62.9431 64.6667 62.8764 64.96C62.8097 65.24 62.7364 65.4867 62.6564 65.7L58.9364 76H57.3564L53.6964 65.7C53.6297 65.5133 53.5564 65.2733 53.4764 64.98C53.4097 64.6733 53.3697 64.4733 53.3564 64.38H53.2364L53.2764 66.94V76H51.4964V62.28ZM71.0766 76.24C70.1699 76.24 69.3632 76.0267 68.6566 75.6C67.9499 75.1733 67.5966 74.4 67.5966 73.28C67.5966 71.9333 68.1966 71.0133 69.3966 70.52C70.5966 70.0133 72.3299 69.76 74.5966 69.76V68.6C74.5966 67.9867 74.4232 67.52 74.0766 67.2C73.7299 66.8667 73.1032 66.7 72.1966 66.7C71.3432 66.7 70.7299 66.86 70.3566 67.18C69.9966 67.5 69.8166 67.8933 69.8166 68.36V68.6H68.1166C68.1032 68.52 68.0966 68.3733 68.0966 68.16C68.0966 67.2267 68.4832 66.5067 69.2566 66C70.0299 65.4933 71.0632 65.24 72.3566 65.24C73.6632 65.24 74.6566 65.5133 75.3366 66.06C76.0166 66.6067 76.3566 67.38 76.3566 68.38V74.08C76.3566 74.32 76.4232 74.5 76.5566 74.62C76.6899 74.7267 76.8566 74.78 77.0566 74.78H77.8566V75.92C77.5099 76.08 77.0566 76.16 76.4966 76.16C76.0432 76.16 75.6632 76.0267 75.3566 75.76C75.0499 75.48 74.8432 75.1133 74.7366 74.66H74.5966C74.2366 75.1533 73.7432 75.54 73.1166 75.82C72.5032 76.1 71.8232 76.24 71.0766 76.24ZM71.5366 74.78C72.0566 74.78 72.5499 74.6733 73.0166 74.46C73.4832 74.2467 73.8632 73.9333 74.1566 73.52C74.4499 73.0933 74.5966 72.58 74.5966 71.98V71.22C72.8766 71.22 71.5832 71.36 70.7166 71.64C69.8632 71.9067 69.4366 72.42 69.4366 73.18C69.4366 73.7533 69.6099 74.1667 69.9566 74.42C70.3166 74.66 70.8432 74.78 71.5366 74.78ZM79.6298 65.48H80.9698L81.1698 67.06H81.2898C81.4898 66.54 81.7898 66.1067 82.1898 65.76C82.5898 65.4133 83.1165 65.24 83.7698 65.24C83.9965 65.24 84.1965 65.2667 84.3698 65.32C84.5565 65.36 84.6698 65.3867 84.7098 65.4V67.1H83.9698C83.2232 67.1 82.6032 67.32 82.1098 67.76C81.6298 68.1867 81.3898 68.86 81.3898 69.78V76H79.6298V65.48ZM86.59 61.54H88.35V63.5H86.59V61.54ZM86.59 65.48H88.35V76H86.59V65.48ZM93.7036 76.22C92.9836 76.22 92.4569 76.0067 92.1236 75.58C91.7903 75.1533 91.6236 74.6267 91.6236 74V66.94H90.3436V65.48H91.6436L92.0236 62.56H93.3836V65.48H95.1636V66.94H93.3836V73.84C93.3836 74.4667 93.6769 74.78 94.2636 74.78H95.1636V75.94C94.9903 76.02 94.7636 76.0867 94.4836 76.14C94.2036 76.1933 93.9436 76.22 93.7036 76.22ZM97.19 61.54H98.95V63.5H97.19V61.54ZM97.19 65.48H98.95V76H97.19V65.48ZM101.924 65.48H103.264L103.464 66.9H103.604C104.324 65.7933 105.377 65.24 106.764 65.24C108.124 65.24 109.03 65.7933 109.484 66.9H109.604C109.964 66.3667 110.43 65.96 111.004 65.68C111.59 65.3867 112.21 65.24 112.864 65.24C114.93 65.24 115.964 66.3 115.964 68.42V76H114.204V68.74C114.204 67.98 114.037 67.4533 113.704 67.16C113.37 66.8533 112.91 66.7 112.324 66.7C111.617 66.7 111.024 66.98 110.544 67.54C110.064 68.1 109.824 68.8467 109.824 69.78V76H108.064V68.74C108.064 67.98 107.904 67.4533 107.584 67.16C107.264 66.8533 106.81 66.7 106.224 66.7C105.77 66.7 105.35 66.8267 104.964 67.08C104.577 67.32 104.264 67.6733 104.024 68.14C103.797 68.6067 103.684 69.1533 103.684 69.78V76H101.924V65.48ZM123.344 76.24C121.65 76.24 120.39 75.7933 119.564 74.9C118.737 74.0067 118.324 72.62 118.324 70.74C118.324 68.86 118.737 67.4733 119.564 66.58C120.39 65.6867 121.65 65.24 123.344 65.24C124.864 65.24 125.997 65.6467 126.744 66.46C127.504 67.26 127.884 68.5533 127.884 70.34V71.22H120.144C120.21 72.4333 120.497 73.3333 121.004 73.92C121.524 74.4933 122.304 74.78 123.344 74.78C124.184 74.78 124.864 74.5867 125.384 74.2C125.904 73.8133 126.164 73.22 126.164 72.42H127.884C127.884 73.6467 127.457 74.5933 126.604 75.26C125.764 75.9133 124.677 76.24 123.344 76.24ZM126.044 69.76C126.044 67.72 125.144 66.7 123.344 66.7C122.344 66.7 121.59 66.94 121.084 67.42C120.59 67.9 120.29 68.68 120.184 69.76H126.044Z" fill="#F6F8F9"/>
</svg>
