<svg width="58" height="23" viewBox="0 0 58 23" fill="none" xmlns="http://www.w3.org/2000/svg">
<path d="M8.0222 3.79695C8.02809 3.7793 8.02809 3.76165 8.02809 3.75577L8.05162 3.58515L6.98674 3.57927C6.02775 3.57339 5.73358 3.57927 5.70417 3.6028C5.6924 3.61457 5.35705 4.8736 4.76872 7.15634C4.48632 8.24476 4.25098 9.11549 4.23922 9.08608C4.23333 9.06254 3.8921 7.81528 3.49203 6.32679C3.08608 4.83242 2.75073 3.6028 2.73896 3.59692C2.7272 3.58515 1.43875 3.57927 0.397396 3.58515C0.244429 3.58515 0.162062 3.29099 1.74468 8.32713C1.96236 9.02136 2.29183 10.0098 2.47421 10.5216C2.68601 11.1099 2.8331 11.563 2.93312 11.9395C3.1155 12.6573 3.12138 13.1103 3.0802 13.6398C3.03313 14.2458 3.02725 18.5465 3.07432 18.6171C3.10962 18.67 5.12172 18.6994 5.31587 18.6465C5.34528 18.6406 5.36882 18.6112 5.38058 18.4465C5.42765 18.3053 5.43353 17.7522 5.43353 15.446V12.4925L5.56297 12.0866C5.64533 11.8218 5.85713 11.1217 6.03363 10.5334C6.21013 9.94504 6.42193 9.23904 6.5043 8.96841C7.26325 6.49152 7.9869 4.05582 8.01044 3.91462L8.0222 3.79695Z" fill="#F6F8F9"/>
<path d="M19.2908 7.37907V7.53204H19.2672L19.2555 11.7739L19.2437 15.8864L18.9142 16.2217C18.5436 16.5983 18.2494 16.7395 17.9847 16.6747C17.6964 16.6041 17.7023 16.7159 17.6787 11.8504L17.6552 7.37319H15.5372V7.52616H15.5137V12.3799C15.5137 17.5808 15.5137 17.5808 15.7784 18.1044C15.9902 18.5221 16.2962 18.7222 16.8198 18.7928C17.5081 18.8869 18.2553 18.5692 18.9495 17.8985L19.2496 17.6043V18.1103C19.2496 18.5457 19.2613 18.6163 19.3437 18.6398C19.4731 18.6751 21.0793 18.6751 21.2499 18.6398L21.3911 18.6104V18.4633L21.4146 18.4574V7.33789L19.2908 7.37907Z" fill="#F6F8F9"/>
<path d="M13.9165 9.56398C13.7164 8.70501 13.3399 8.12256 12.7221 7.72249C11.7514 7.09297 10.6394 7.02825 9.60985 7.53422C8.85678 7.90487 8.37435 8.52263 8.12725 9.42278C8.09783 9.52868 8.0743 9.62281 8.05665 9.75813C7.99193 10.0758 7.98605 10.5524 7.9684 12.7645C7.94486 16.1769 7.98016 16.5828 8.40965 17.3594C8.82736 18.1184 9.6981 18.6773 10.6453 18.7891C10.9277 18.8244 11.5102 18.7714 11.8396 18.6773C12.5927 18.4655 13.3164 17.8713 13.6399 17.1947C13.7811 16.9005 13.8635 16.7005 13.9106 16.3239C14.0047 15.818 14.0106 14.9943 14.0106 12.8998C14.0106 10.2406 14.0047 9.94639 13.9165 9.56398ZM11.4984 16.5181C11.3219 16.6534 11.0101 16.7122 10.7571 16.6593C10.563 16.6181 10.2982 16.3122 10.2217 16.0357C10.1217 15.6885 10.1158 10.8701 10.1982 9.92875C10.3394 9.45808 10.7395 9.21098 11.1807 9.32864C11.5219 9.42278 11.6926 9.63458 11.7926 10.0817C11.8691 10.4112 11.8749 10.823 11.8573 13.2528C11.8455 14.8649 11.8396 15.6474 11.7867 16.071C11.7396 16.3357 11.6514 16.4063 11.4984 16.5181Z" fill="#F6F8F9"/>
<path d="M51.9345 11.9932H52.9582L52.9405 11.0636C52.9229 10.2105 52.9111 10.1164 52.7993 9.8869C52.6228 9.52213 52.3581 9.36328 51.9345 9.36328C51.4285 9.36328 51.1108 9.6045 50.9579 10.1046C50.8931 10.3164 50.8284 11.7814 50.8755 11.9049C50.9049 11.9755 51.052 11.9873 51.9345 11.9932Z" fill="#F6F8F9"/>
<path d="M45.1129 9.87734C44.9776 9.60082 44.7246 9.4655 44.4305 9.47727C44.201 9.48315 43.948 9.58317 43.7009 9.77144L43.5186 9.91264V16.5726L43.7009 16.7138C44.1128 17.0315 44.5717 17.0962 44.8835 16.8844C45.007 16.802 45.0894 16.6844 45.1482 16.5079C45.2306 16.2725 45.2365 15.9666 45.2247 13.1661C45.2129 10.2421 45.2071 10.0715 45.1129 9.87734Z" fill="#F6F8F9"/>
<path d="M57.7914 6.88053C57.5855 4.43894 57.4266 3.64469 56.9207 2.62687C56.2558 1.27959 55.291 0.567706 53.9143 0.408856C52.8494 0.285306 48.8546 0.120571 45.154 0.0382045C38.7529 -0.102996 28.2217 0.167638 26.8803 0.514755C26.2567 0.673605 25.7919 0.944239 25.3095 1.42667C24.4623 2.27387 23.9504 3.48584 23.7504 5.16259C23.2856 8.99264 23.2739 13.6228 23.721 17.5941C23.9151 19.3002 24.3093 20.4122 25.0565 21.3241C25.5213 21.8948 26.3214 22.3772 27.0392 22.5243C27.5393 22.6243 30.0573 22.7655 33.7227 22.9009C34.2698 22.9185 35.7112 22.9538 36.935 22.9773C39.4766 23.0244 44.1538 22.995 46.8307 22.9185C48.631 22.8655 51.9081 22.7361 52.5258 22.689C52.6964 22.6773 53.0965 22.6479 53.4142 22.6302C54.4732 22.5714 55.1498 22.3478 55.7852 21.8477C56.6088 21.2006 57.2442 20.0121 57.509 18.6119C57.762 17.2881 57.9326 14.9348 57.9679 12.2579C57.9914 10.0222 57.9561 8.81614 57.7914 6.88053ZM32.293 5.99802L31.1046 6.01567L31.0516 18.706L30.022 18.7178C29.2219 18.7296 28.9807 18.7178 28.963 18.6648C28.9513 18.6295 28.9336 15.7702 28.9277 12.305L28.916 6.00979L26.5921 5.98037V3.99769L33.4579 4.02711L33.4873 5.98037L32.293 5.99802ZM39.5884 13.2698V18.7296H37.7057V18.153C37.7057 17.7235 37.688 17.5764 37.641 17.5764C37.6057 17.5764 37.4351 17.7176 37.2644 17.8941C36.8938 18.2707 36.4525 18.5766 36.076 18.7178C35.2994 19.0061 34.5581 18.8413 34.2463 18.2942C33.958 17.8 33.9521 17.6882 33.9521 12.5403V7.81009H35.8289L35.8465 12.2638C35.8583 16.641 35.8642 16.7175 35.9701 16.894C36.1113 17.1293 36.3231 17.194 36.6585 17.0999C36.8585 17.0469 36.9938 16.9469 37.3115 16.6292L37.7175 16.2233V7.81009H39.6001L39.5884 13.2698ZM46.9249 17.9471C46.7601 18.3177 46.3895 18.6766 46.0894 18.7649C45.3011 19.0002 44.6657 18.806 43.9361 18.1177C43.7067 17.9059 43.5008 17.7294 43.4655 17.7294C43.4243 17.7294 43.4066 17.8941 43.4066 18.2236V18.7178H41.524V3.99769H43.4066V6.39809C43.4066 7.72184 43.4243 8.79849 43.4478 8.79849C43.4714 8.79849 43.6655 8.62199 43.8891 8.41019C44.395 7.92188 44.8245 7.70419 45.3599 7.66301C46.3189 7.59241 46.8955 8.08661 47.1543 9.21621C47.2367 9.56921 47.2426 9.96928 47.2426 13.2345C47.2426 17.2234 47.2426 17.2411 46.9249 17.9471ZM54.8791 15.7644C54.8615 16.1762 54.8144 16.641 54.7674 16.8116C54.5085 17.7823 53.8084 18.4648 52.8023 18.7472C51.4492 19.1237 49.9548 18.506 49.3606 17.3117C49.0252 16.641 49.0135 16.5115 49.0135 13.2404C49.0135 10.5753 49.0252 10.2517 49.1076 9.88691C49.3488 8.85733 49.9489 8.19251 50.9608 7.82186C51.255 7.71596 51.5609 7.65713 51.8669 7.65124C52.9612 7.62771 54.0437 8.21604 54.4967 9.17503C54.8027 9.82219 54.8438 10.0987 54.8733 11.9167L54.9027 13.5463L50.8961 13.5758L50.8785 14.6701C50.8549 16.2174 50.9608 16.6939 51.3786 16.9763C51.7316 17.2117 52.2669 17.194 52.5611 16.9351C52.8376 16.6939 52.9141 16.4351 52.9435 15.6761L52.9671 15.0113H54.9027L54.8791 15.7644Z" fill="#F6F8F9"/>
</svg>
